Simulation
nRows=32
nColumns=15
endheader
time  TH_x TH_y TH_z SC_y  SC_z  SC_x  AC_y  AC_z  AC_x  GH_y  GH_z  GH_yy  EL_x  PS_y
8.6175  0.000000  0.000000  0.000000  -43.99649375044826  3.0492562329874944  -0.4273966259386061  42.096746840397536  4.834122686513424  -2.384538812622515  108.3430256328694  5.321083864441937  -84.04323016178245  20.528129511941053  120.000000
8.67495  0.000000  0.000000  0.000000  -42.263030851341895  2.0884513903634865  -1.7968494615957276  41.42295033763982  4.580131890131516  -2.7355217504748284  91.34465097516323  5.532892972780653  -68.1914659408786  20.45311827475032  120.000000
8.7324  0.000000  0.000000  0.000000  -40.27120919290189  0.9494286278978487  -3.505835488327816  40.719412817730756  4.402098906407496  -2.871385161479657  75.52456937349577  6.648011343661253  -53.50434379082253  20.53265368786064  120.000000
8.78985  0.000000  0.000000  0.000000  -38.219791714287076  -0.23866158476750043  -5.4603922024748455  40.01301666865367  4.373700671196196  -2.76772623639865  65.17102453218405  8.673690602202543  -44.240173713368726  20.733749303371994  120.000000
8.8473  0.000000  0.000000  0.000000  -36.32329678690831  -1.2934723021887424  -7.507527017664783  39.32282070716885  4.5599038405225985  -2.429548681981585  60.265649118454924  11.428116260223316  -40.376329641479515  20.994604496488247  120.000000
8.90475  0.000000  0.000000  0.000000  -34.669633849574716  -1.9801163672145294  -9.389072971684424  38.69301345655986  4.976295302705109  -1.9134476599164423  59.39388248959362  14.629394764853899  -40.51088525155983  21.27210052528555  120.000000
8.9622  0.000000  0.000000  0.000000  -33.26998659783872  -2.1195840521388845  -10.786937908859384  38.16058323653101  5.657939993598566  -1.2776561525954717  61.31050951412335  17.93168030376481  -43.50160034836514  21.515454130691925  120.000000
9.01965  0.000000  0.000000  0.000000  -32.13746473428797  -1.5522129679477186  -11.452457072253472  37.75398395224439  6.655848023194684  -0.4867074762792339  65.24477601672629  21.05267493915771  -48.73341490985319  21.681443770024487  120.000000
9.0771  0.000000  0.000000  0.000000  -31.313902889308626  -0.08508322075835027  -11.211309408765615  37.575052114347855  7.949295921797586  0.5082431649957996  70.70592358841625  23.922895009506995  -55.835866274337555  21.770418847663176  120.000000
9.13455  0.000000  0.000000  0.000000  -30.947415197483487  2.341797538291473  -9.865350735822853  37.595195614552644  9.372218221924934  1.757462155743923  77.21673517731928  26.62524413494518  -64.37539183715457  21.80731092221867  120.000000
9.192  0.000000  0.000000  0.000000  -31.206935115712067  5.7342704248638  -7.210644592851287  37.839139533670526  10.613983012241283  3.3129203123126065  84.223818955717  29.354839667061267  -73.77806273561767  21.816400441932252  120.000000
9.24945  0.000000  0.000000  0.000000  -32.2804518003393  9.874754147363218  -3.097998720606763  38.44167555809523  11.316796832493052  5.2576238302554765  90.8713047725807  32.30860286596656  -83.16726073221186  21.78670639512965  120.000000
9.3069  0.000000  0.000000  0.000000  -34.31617650042622  14.355370867284925  2.5648790489409814  39.437112261212356  11.155884287833555  7.704715324808606  96.40834713222645  35.53324274289727  -91.71434681706818  21.702438567363856  120.000000
9.36435  0.000000  0.000000  0.000000  -37.367965673888385  18.842889702674775  9.633341063375466  41.13358590188798  9.93248046284027  10.568539281638499  99.71644236230091  38.846570444013715  -98.39813564867698  21.538740381061363  120.000000
9.421800000000001  0.000000  0.000000  0.000000  -41.40728168519446  22.881051113320783  17.739417867981274  43.7844205371547  7.64580861983905  13.603906491608875  99.79618177921606  41.614084685386466  -102.44001512036685  21.209027293297485  120.000000
9.47925  0.000000  0.000000  0.000000  -46.06656481741694  25.98552507748727  26.411083151997964  47.16002786931264  4.643107351200851  16.41931584617977  96.92563886972135  43.451393360731636  -103.94924976046137  20.700853616177653  120.000000
9.5367  0.000000  0.000000  0.000000  -50.590958377485876  27.86299002147047  34.936612635515544  50.802727656262874  1.3769970754044536  18.64191888465676  91.98678140331708  44.59177872923605  -103.35024992232148  20.093205250026323  120.000000
9.59415  0.000000  0.000000  0.000000  -54.182125482554156  28.493838859774673  42.50643365097764  54.316932556733335  -1.8490860548033379  20.17316067890898  85.87244661761491  45.408842148262515  -101.1124893042155  19.457952306653343  120.000000
9.6516  0.000000  0.000000  0.000000  -56.41990171405232  28.172541242447497  48.572614909159725  57.447349761959316  -4.757401649992561  21.118628893921986  79.46200362400876  46.190709181376974  -97.81464452588656  18.845026556511172  120.000000
9.70905  0.000000  0.000000  0.000000  -57.42535854603508  27.29158332857704  53.01993156509279  60.028550223789715  -7.136363826212284  21.625100489814905  73.53415996914937  47.09708696907609  -94.08078420592784  18.299354322360415  120.000000
9.7665  0.000000  0.000000  0.000000  -57.65284356228354  26.20811106021915  56.09006288846734  61.935345435150154  -8.879644482559605  21.788225253179178  68.70215941692452  48.12838872880275  -90.51751113809998  17.870639549009205  120.000000
9.82395  0.000000  0.000000  0.000000  -57.614414741467165  25.269836285499185  58.18087217835055  63.104965141987186  -10.039637309716031  21.71245407016745  65.30122978983105  49.143603037818714  -87.58794400705882  17.587103318045084  120.000000
9.8814  0.000000  0.000000  0.000000  -57.57598117390416  24.643897448463633  59.58900131194819  63.599972405587835  -10.746255209152354  21.470114514930575  63.328490780991174  49.9548124284266  -85.51282989485253  17.449759522049128  120.000000
9.93885  0.000000  0.000000  0.000000  -57.51350239497191  24.292480340513258  60.43284822588305  63.60315504454819  -11.149277942412755  21.089277286503037  62.533757914397064  50.43263913927989  -84.27983766889446  17.433268542860944  120.000000
9.9963  0.000000  0.000000  0.000000  -57.374189476597  24.18578583574006  60.82205675512635  63.32026843330777  -11.456702773495543  20.601935767633876  62.62422342770074  50.515647520547176  -83.7321277565554  17.503983435860718  120.000000
10.05375  0.000000  0.000000  0.000000  -57.13713054413803  24.33853549469732  60.748179935505696  62.92141225245933  -11.833941110109688  20.026108861805934  63.35077381010731  50.23881787199499  -83.63564296940415  17.61568347433335  120.000000
10.1112  0.000000  0.000000  0.000000  -56.65518168232228  24.6584840340068  59.87403609737112  62.57636886890143  -12.32461425093904  19.336507723063765  64.37048787026376  49.765438819638945  -83.59830796634225  17.730357806975242  120.000000
10.16865  0.000000  0.000000  0.000000  -55.686543974619994  24.868645589560572  57.688668959822024  62.414425561160535  -12.850025084149829  18.480917888777824  65.2824780102182  49.277715078816  -83.08340024109421  17.824507316225706  120.000000
10.2261  0.000000  0.000000  0.000000  -54.07611532731055  24.62153220223462  53.7848929898769  62.40859573206447  -13.226341234224186  17.43314651943314  65.80212370425566  48.84955764303331  -81.56793004992836  17.878516070327247  120.000000
10.28355  0.000000  0.000000  0.000000  -51.886525519999  23.632793440554504  48.036746104290295  62.39257141729815  -13.238170137672633  16.22914923694732  65.76812800047907  48.43824862414585  -78.66437049646647  17.875759449349356  120.000000
10.341000000000001  0.000000  0.000000  0.000000  -49.353548666433234  21.737588521729784  40.63352754836718  62.12845404139845  -12.71920860959506  14.965165680063366  65.0870944954767  47.94399062973563  -74.20342939359642  17.811806257196817  120.000000
10.39845  0.000000  0.000000  0.000000  -46.78141481993482  19.021229708789686  32.02740571598286  61.386008628555665  -11.569561903592675  13.74536047998928  63.762763439567976  47.303957377416765  -68.3158600835481  17.704867642987423  120.000000
